<?xml version="1.0" encoding="utf-8"?>
<!-- Generator: Adobe Illustrator 16.0.0, SVG Export Plug-In . SVG Version: 6.00 Build 0)  -->
<!DOCTYPE svg PUBLIC "-//W3C//DTD SVG 1.1//EN" "http://www.w3.org/Graphics/SVG/1.1/DTD/svg11.dtd">
<svg version="1.1" xmlns="http://www.w3.org/2000/svg" xmlns:xlink="http://www.w3.org/1999/xlink" x="0px" y="0px"
	 width="637.149px" height="101.196px" viewBox="0 0 637.149 101.196" enable-background="new 0 0 637.149 101.196"
	 xml:space="preserve">
<g id="Layer_2">
	<g>
		<path fill="#231F20" d="M634.899,14.17c-1.934-1.96-5.32-2.202-8.524-2.574C628.816,13.485,631.43,14.33,634.899,14.17z"/>
		<path fill="#231F20" d="M626.312,11.554c-0.012,0.01-0.036,0.017-0.05,0.025c0.044,0.001,0.076,0.011,0.112,0.017
			C626.351,11.577,626.331,11.572,626.312,11.554z"/>
		<path fill="#231F20" d="M2.337,88.093c0.802-0.024,1.716-0.051,2.643-0.079C4.096,87.942,3.196,87.921,2.337,88.093z"/>
		<path fill="#231F20" d="M470.969,3.547l-0.54,3.188c-7.613-0.073-2.158-3.692-9.21-3.015c-2.824,4.479-11.684-0.653-14.154,1.712
			c0.061-0.357-3.384-0.55-3.144-1.961c-1.095,2.438-3.554,0.514-5.737,1.106c-0.799,0.67,0.566,0.744,1.145,1.493l-4.993,0.788
			c-1.936-0.821-2.392-2.272-0.271-2.506c-12.998-1.086-75.437-4.426-89.475-3.423c1.772,1.883,6.12,0.699,7.718,3.64
			c-3.732,1.576-5.447-0.658-7.108,1.034c-1.354-4.359-8.128-1.167-10.865-5.604l-1.102,2.441l-1.818-1.534
			c-16.34,2.3-3.745,1.189-18.184,0.381c-8.369,0.246-12.396,3.592-17.029,2.262c0.691,0.037,2.511,1.57,0.335,2.163
			c-0.335-2.163-5.792,1.458-6.812-0.739c-2.126,0.239-8.996-0.149-6.715,2.838c-1.144-1.49-7.268-2.19-3.596-3.411
			c-2.068-0.12-4.065-0.586-5.565,0.043l2.644,0.864c-6.994,0.318-10.767-2.026-15.359,0.571l2.563,1.212
			c-4.181,0.122-7.678,0.287-9.272-2.657l4.304-0.83c-6.93-0.034-11.11,0.091-16.91,1.553l2.06,0.113
			c-7.403,2.798-45.927,4.597-52.764,8.141l3.086,2.314l-5.86,1.815c0.689,0.038,2.93-7.311,3.496-6.563
			c-12.495,0.014-77.499,0.743-89.011-0.967c-4.635-1.328-0.781-3.609-0.722-3.966c-5.679,0.756-2.482,2.364-7.295,2.093
			C93.5,7.71,95.108,6.367,95.853,6.056c-2.115,0.235-4.06-0.581-4.237,0.475c2.626,0.863,1.464,3.654,2.553,5.497l-6.191-0.341
			l0.303-1.77c-1.38-0.077-3.58,4.795-9.65,3.746c-10.255-0.931-21.417-0.485-31.734-1.06c0.178-1.061,2.355-1.656,4.539-2.245
			c-1.384-0.077-3.498,0.162-4.76-0.622c2.463,1.92-4.353,1.183-2.416,2.006c-7.63,4.216-17.351,0.103-24.073,2.939
			C19.54,18.572,4.832,81.45,4.758,86.087C2.687,85.971,0.627,85.854,0,85.461c0.517,1.098,4.583,1.684,6.758,1.094l0.413-2.479
			c4.995-0.793,1.144,1.494,6.008,1.403c0.227,2.037-4.255,2.402-8.199,2.535c3.545,0.292,7.055,1.831,8.536-0.372
			c3.321,0.898-0.411,2.479,3.592,3.412c2.871-0.553,6.659-2.484,9.927-1.229l-0.064,0.357c7.957,2.226,12.273-2.89,19.54-0.699
			l-0.797,0.668c2.562,1.215,7.667-0.284,12.302,1.044c-1.322-0.431-2.452-1.922,0.35-2.119c5.332,1.366,9.003,0.142,12.891,1.788
			l3.787-1.932c18.627,0.684,92.275-0.983,110.999-1.005l-0.738,0.307c28.536-0.544,87.079,0.537,116.6-1.74
			c4.527,2.031,10.823,1.669,15.57,2.293c-2.632-0.859-1.705-2.235,0.359-2.123c14.489,0.455,0.999-1.34,15.669-1.946
			c16.904-1.556,81.456,1.541,96.41,3.449c8.092-2.762,18.104-0.418,26.016-2.12l-0.805,0.669c8.484-0.954,56.37,2.482,66.228,1.604
			l-1.315-0.434c8.608-1.659,7.39,1.484,14.136,2.577c-0.837-3.258,6.545-4.981,9.354-5.181l-0.118,0.707
			c4.238-0.478,13.861-3.143,20.853-3.467l-0.301,1.77c5.854-1.814,16.792-0.849,20.98-0.969c9.562,0.886,24.276,4.207,37.113,2.066
			l8.19,5.186l1.219-0.483c0,0,14.283-60.835-2.417-74.105l0.297-1.765l-3.346,0.176c-3.997-0.936-5.885,1.087-5.584-0.675
			l5.491,0.304c-4.021-0.578-1.193-1.472,0.36-2.449c-1.68-0.197-3.31-0.437-4.64-1c-0.805,0.667,0.571,0.744,1.192,1.138
			c-2.177,0.59-5.222,2.206-7.848,1.348c-4.124-0.231-0.218-2.871-5.029-3.14c-25.37-1.771-49.941-4.212-75.612-4.219
			c-0.572-0.744,0.123-0.707,0.868-1.024c-7.743,0.642-14.611,0.257-21.664,0.938c-1.942-0.823-2.46-1.923-3.026-2.666
			c0.569,0.743-9.157,0.99-19.105,1.002c-4.974,0.006-10.002-0.047-13.827-0.126C473.746,3.751,471.126,3.646,470.969,3.547z"/>
	</g>
	<g>
		<path fill="#231F20" d="M634.899,24.17c-1.934-1.96-5.32-2.202-8.524-2.574C628.816,23.485,631.43,24.33,634.899,24.17z"/>
		<path fill="#231F20" d="M626.312,21.554c-0.012,0.01-0.036,0.017-0.05,0.025c0.044,0.001,0.076,0.011,0.112,0.017
			C626.351,21.577,626.331,21.572,626.312,21.554z"/>
		<path fill="#231F20" d="M2.337,98.093c0.802-0.024,1.716-0.051,2.643-0.079C4.096,97.942,3.196,97.921,2.337,98.093z"/>
		<path fill="#231F20" d="M470.969,13.547l-0.54,3.188c-7.613-0.073-2.158-3.692-9.21-3.015c-2.824,4.479-11.684-0.653-14.154,1.712
			c0.061-0.357-3.384-0.55-3.144-1.961c-1.095,2.438-3.554,0.514-5.737,1.106c-0.799,0.67,0.566,0.744,1.145,1.493l-4.993,0.788
			c-1.936-0.821-2.392-2.272-0.271-2.506c-12.998-1.086-75.437-4.426-89.475-3.423c1.772,1.883,6.12,0.699,7.718,3.64
			c-3.732,1.576-5.447-0.658-7.108,1.034c-1.354-4.359-8.128-1.167-10.865-5.604l-1.102,2.441l-1.818-1.534
			c-16.34,2.3-3.745,1.189-18.184,0.381c-8.369,0.246-12.396,3.592-17.029,2.262c0.691,0.037,2.511,1.57,0.335,2.163
			c-0.335-2.163-5.792,1.458-6.812-0.739c-2.126,0.239-8.996-0.149-6.715,2.838c-1.144-1.49-7.268-2.19-3.596-3.411
			c-2.068-0.12-4.065-0.586-5.565,0.043l2.644,0.864c-6.994,0.318-10.767-2.026-15.359,0.571l2.563,1.212
			c-4.181,0.122-7.678,0.287-9.272-2.657l4.304-0.83c-6.93-0.034-11.11,0.091-16.91,1.553l2.06,0.113
			c-7.403,2.798-45.927,4.597-52.764,8.141l3.086,2.314l-5.86,1.815c0.689,0.038,2.93-7.311,3.496-6.563
			c-12.495,0.014-77.499,0.743-89.011-0.967c-4.635-1.328-0.781-3.609-0.722-3.966c-5.679,0.756-2.482,2.364-7.295,2.093
			c-1.308-0.429,0.301-1.771,1.045-2.083c-2.115,0.235-4.06-0.581-4.237,0.475c2.626,0.863,1.464,3.654,2.553,5.497l-6.191-0.341
			l0.303-1.77c-1.38-0.077-3.58,4.795-9.65,3.746c-10.255-0.931-21.417-0.485-31.734-1.06c0.178-1.061,2.355-1.656,4.539-2.245
			c-1.384-0.077-3.498,0.162-4.76-0.622c2.463,1.92-4.353,1.183-2.416,2.006c-7.63,4.216-17.351,0.103-24.073,2.939
			C19.54,28.572,4.832,91.45,4.758,96.087C2.687,95.971,0.627,95.854,0,95.461c0.517,1.098,4.583,1.684,6.758,1.094l0.413-2.479
			c4.995-0.793,1.144,1.494,6.008,1.403c0.227,2.037-4.255,2.402-8.199,2.535c3.545,0.292,7.055,1.831,8.536-0.372
			c3.321,0.898-0.411,2.479,3.592,3.412c2.871-0.553,6.659-2.484,9.927-1.229l-0.064,0.357c7.957,2.226,12.273-2.89,19.54-0.699
			l-0.797,0.668c2.562,1.215,7.667-0.284,12.302,1.044c-1.322-0.431-2.452-1.922,0.35-2.119c5.332,1.366,9.003,0.142,12.891,1.788
			l3.787-1.932c18.627,0.684,92.275-0.983,110.999-1.005l-0.738,0.307c28.536-0.544,87.079,0.537,116.6-1.74
			c4.527,2.031,10.823,1.669,15.57,2.293c-2.632-0.859-1.705-2.235,0.359-2.123c14.489,0.455,0.999-1.34,15.669-1.946
			c16.904-1.556,81.456,1.541,96.41,3.449c8.092-2.762,18.104-0.418,26.016-2.12l-0.805,0.669c8.484-0.954,56.37,2.482,66.228,1.604
			l-1.315-0.434c8.608-1.659,7.39,1.484,14.136,2.577c-0.837-3.258,6.545-4.981,9.354-5.181l-0.118,0.707
			c4.238-0.478,13.861-3.143,20.853-3.467l-0.301,1.77c5.854-1.814,16.792-0.849,20.98-0.969c9.562,0.886,24.276,4.207,37.113,2.066
			l8.19,5.186l1.219-0.483c0,0,14.283-60.835-2.417-74.105l0.297-1.765l-3.346,0.176c-3.997-0.936-5.885,1.087-5.584-0.675
			l5.491,0.304c-4.021-0.578-1.193-1.472,0.36-2.449c-1.68-0.197-3.31-0.437-4.64-1c-0.805,0.667,0.571,0.744,1.192,1.138
			c-2.177,0.59-5.222,2.206-7.848,1.348c-4.124-0.231-0.218-2.871-5.029-3.14c-25.37-1.771-49.941-4.212-75.612-4.219
			c-0.572-0.744,0.123-0.707,0.868-1.024c-7.743,0.642-14.611,0.257-21.664,0.938c-1.942-0.823-2.46-1.923-3.026-2.666
			c0.569,0.743-9.157,0.99-19.105,1.002c-4.974,0.006-10.002-0.047-13.827-0.126C473.746,13.751,471.126,13.646,470.969,13.547z"/>
	</g>
</g>
<g id="Layer_1">
	<g>
		<g>
			<path fill="#FFFFFF" d="M74.653,36.896c0,0.146-0.069,0.534-0.205,1.164c-0.138,0.631-0.274,1.14-0.411,1.527
				c-0.068,0.098-0.189,0.268-0.359,0.51c-0.172,0.243-0.325,0.509-0.462,0.8c-0.274,0-0.582-0.121-0.923-0.364
				c-0.138,0.146-0.275,0.255-0.411,0.328c-0.138,0.072-0.274,0.182-0.41,0.327h0.103c0-0.097,0.033-0.169,0.103-0.218v-0.073
				c0-0.048-0.035-0.097-0.103-0.146c-0.41,0.098-0.735,0.218-0.975,0.364c-0.24,0.146-0.497,0.316-0.771,0.509
				c0-0.146,0-0.278,0-0.4c0-0.12-0.034-0.229-0.102-0.327c-0.344-0.097-0.754-0.315-1.232-0.654
				c-0.479-0.339-0.89-0.655-1.23-0.946c-0.069-0.097-0.104-0.169-0.104-0.218c0-0.047-0.034-0.146-0.103-0.291
				c0.068-0.145,0.103-0.338,0.103-0.582c0-0.242,0.067-0.46,0.205-0.655h-0.205c-0.205,0-0.308-0.073-0.308-0.218
				c0-0.193,0-0.436,0-0.727s0.067-0.557,0.205-0.8c0.068-0.048,0.137-0.06,0.206-0.037c0.067,0.025,0.136-0.011,0.205-0.109
				l0.308-0.363c-0.069-0.097-0.069-0.121,0-0.073c0.067,0.049,0.103-0.048,0.103-0.291c0-0.338-0.068-0.764-0.205-1.272
				c-0.138-0.509-0.326-1.042-0.564-1.6c-0.241-0.557-0.514-1.055-0.821-1.491c-0.307-0.436-0.633-0.751-0.976-0.946
				c-0.479-0.291-1.128-0.605-1.949-0.945c-0.82-0.338-1.369-0.509-1.643-0.509c-0.343,0-0.445,0.025-0.307,0.073
				c0.136,0.049,0.033,0.073-0.308,0.073c-0.344,0-0.549-0.06-0.616-0.182c-0.068-0.12-0.205-0.206-0.411-0.254
				c-0.068-0.048-0.41-0.072-1.026-0.072c-0.273,0-0.718,0.121-1.334,0.363c-0.615,0.243-1.248,0.521-1.897,0.836
				c-0.651,0.316-1.25,0.618-1.797,0.909c-0.548,0.291-0.855,0.485-0.924,0.582c-0.41,0.485-0.82,1.031-1.231,1.637
				c-0.41,0.607-0.684,1.176-0.82,1.709c-0.274,0.437-0.41,0.898-0.41,1.382c0,0.243,0.016,0.728,0.051,1.455
				c0.033,0.728,0.154,1.358,0.359,1.891c0,0.194,0.137,0.425,0.41,0.691c0.272,0.267,0.444,0.545,0.514,0.836
				c0.205,0.534,0.323,1.164,0.358,1.891c0.033,0.727,0.359,1.382,0.976,1.964c0.342,0.776,0.734,1.636,1.181,2.582
				c0.443,0.945,0.836,1.831,1.18,2.655c0,0.098,0.084,0.218,0.256,0.363c0.171,0.146,0.324,0.316,0.463,0.509
				c0.409,0.825,0.785,1.613,1.129,2.364c0.341,0.752,0.683,1.504,1.025,2.255c0.342,0.752,0.734,1.563,1.181,2.436
				c0.443,0.873,0.975,1.843,1.59,2.91c0.342,0.437,0.668,1.079,0.975,1.927c0.309,0.849,0.581,1.758,0.822,2.728
				c0.238,0.97,0.443,1.916,0.615,2.837c0.17,0.921,0.257,1.746,0.257,2.473c0,0.146-0.069,0.618-0.206,1.418
				c-0.138,0.8-0.343,1.491-0.615,2.073c-0.068,0.146-0.051,0.303,0.051,0.472c0.104,0.171,0.085,0.353-0.051,0.546
				c-0.138,0.485-0.514,1.019-1.128,1.6c-0.616,0.582-1.335,1.067-2.156,1.455c-0.138,0.098-0.358,0.267-0.667,0.509
				c-0.308,0.243-0.633,0.46-0.975,0.655c-0.069,0-0.189,0-0.358,0c-0.173,0-0.326,0.023-0.463,0.072
				c-0.754,0.291-1.677,0.521-2.771,0.691c-1.095,0.169-2.019,0.254-2.771,0.254h-2.258c-0.138,0-0.479-0.061-1.025-0.182
				c-0.549-0.122-1.096-0.267-1.642-0.437c-0.549-0.17-1.096-0.316-1.643-0.437c-0.549-0.121-0.89-0.182-1.026-0.182
				c-0.343,0-0.428,0.037-0.257,0.11c0.171,0.072,0.085,0.109-0.256,0.109c-0.205,0-0.514-0.146-0.924-0.437
				c-0.41-0.291-0.685-0.533-0.82-0.727c-0.411-0.291-1.165-0.63-2.259-1.019c-1.095-0.388-2.019-0.897-2.771-1.527
				c-0.685-0.533-1.539-1.31-2.565-2.328c-1.026-1.018-1.642-1.891-1.847-2.618c-0.274-0.291-0.531-0.655-0.771-1.091
				c-0.24-0.437-0.564-0.873-0.975-1.309c0-0.097,0.085-0.206,0.257-0.328c0.17-0.12,0.187-0.229,0.051-0.327
				c-0.069-0.146-0.274-0.315-0.615-0.509c0.205-0.291,0.238-0.691,0.103-1.2c-0.138-0.509-0.205-0.933-0.205-1.272
				c0-0.193-0.103-0.339-0.308-0.437c-0.206-0.097-0.309-0.266-0.309-0.509c0-0.242,0.051-0.388,0.154-0.437
				c0.103-0.048,0.154-0.146,0.154-0.291c0.136,0,0.221,0.062,0.256,0.182c0.033,0.122,0.188,0.231,0.462,0.327
				c0-0.338-0.052-0.689-0.153-1.055c-0.104-0.364-0.052-0.787,0.153-1.272c0.067,0,0.272,0.194,0.615,0.582
				c0.206-0.387,0.239-0.8,0.104-1.236c-0.139-0.438-0.309-0.848-0.514-1.236c0.205,0,0.272-0.061,0.205-0.182
				c-0.068-0.121,0.067-0.182,0.411-0.182c0.341,0,0.478,0.025,0.41,0.073c-0.069,0.049,0,0.073,0.205,0.073
				c0-0.242,0.067-0.473,0.205-0.691c0.137-0.219,0.205-0.473,0.205-0.764c0,0.244-0.051,0.485-0.153,0.728
				c-0.103,0.243-0.087,0.509,0.052,0.8c0.067,0.146,0.136,0.207,0.205,0.182c0.066-0.024,0.136-0.011,0.205,0.036
				c0.205,0.098,0.29,0.364,0.256,0.8c-0.034,0.437,0.222,0.68,0.77,0.728c0.068,0.485,0.273,1.018,0.616,1.6l0.514-0.364
				c0,0.485,0.084,1.031,0.256,1.637c0.17,0.607,0.376,1.2,0.616,1.782c0.239,0.582,0.513,1.104,0.82,1.563
				c0.309,0.462,0.599,0.789,0.873,0.982c0.341,0.243,0.719,0.667,1.129,1.273c0.41,0.607,0.785,0.909,1.129,0.909
				c0.272,0,0.359-0.037,0.256-0.109c-0.103-0.073-0.153-0.157-0.153-0.255c0.205,0.339,0.718,0.691,1.539,1.055
				c0.821,0.364,1.778,0.69,2.874,0.981c1.093,0.291,2.188,0.534,3.283,0.728c1.094,0.194,2.018,0.291,2.771,0.291
				c0.478,0,0.888-0.048,1.23-0.146l0.514,0.291c0.136-0.097,0.444-0.206,0.923-0.327s0.855-0.229,1.129-0.327
				c0.411-0.193,0.855-0.473,1.335-0.836c0.478-0.364,0.82-0.764,1.025-1.2c0.137-0.291,0.206-0.593,0.206-0.909
				c0-0.315,0-0.619,0-0.91c0-0.242-0.035-0.351-0.104-0.327c-0.068,0.025-0.103,0.013-0.103-0.036
				c0.068-0.291,0.119-0.618,0.154-0.982c0.033-0.363-0.018-0.69-0.154-0.981c-0.41-0.97-0.907-2.061-1.487-3.273
				c-0.582-1.211-1.198-2.473-1.847-3.782c-0.651-1.31-1.353-2.606-2.104-3.891c-0.753-1.285-1.506-2.485-2.258-3.601
				c0-0.097-0.308-0.812-0.923-2.146c-0.616-1.333-1.284-2.874-2.002-4.619c-0.719-1.746-1.385-3.479-2.001-5.2
				c-0.615-1.721-0.924-3.019-0.924-3.892c0-0.097,0.052-0.629,0.154-1.6c0.103-0.969,0.257-1.77,0.462-2.4
				c0.136-0.629,0.513-1.418,1.128-2.364c0.616-0.945,1.266-1.83,1.95-2.654c0-0.097-0.052-0.157-0.153-0.182
				c-0.103-0.024-0.154-0.109-0.154-0.255c0.411-0.097,0.803-0.291,1.181-0.582c0.375-0.291,0.7-0.437,0.975-0.437
				c0.342,0,0.41,0.062,0.205,0.182c-0.205,0.122-0.171,0.182,0.103,0.182c0.342,0,0.906-0.279,1.693-0.836
				c0.786-0.557,1.419-0.837,1.898-0.837c1.094-0.048,2.36-0.109,3.798-0.181c1.438-0.073,2.324-0.11,2.667-0.11
				c0.067,0,0.324,0.049,0.771,0.146c0.444,0.098,0.939,0.219,1.487,0.364c0.547,0.146,1.078,0.291,1.592,0.436
				c0.513,0.146,0.939,0.243,1.282,0.291c0.41,0.146,0.957,0.363,1.643,0.654c0.683,0.291,1.333,0.462,1.949,0.509
				c1.163,0.098,2.171,0.619,3.027,1.564c0.854,0.946,1.572,2.025,2.155,3.237c0.58,1.212,1.009,2.425,1.282,3.636
				C74.516,35.2,74.653,36.168,74.653,36.896z"/>
		</g>
		<g>
			<path fill="#FFFFFF" d="M120.935,59.152c0,1.746-0.206,3.408-0.615,4.982c-0.411,1.577-0.856,3.213-1.335,4.91
				c-0.343,1.262-0.89,2.449-1.642,3.564c-0.753,1.116-1.506,2.109-2.258,2.982c-0.479,0.437-0.993,0.885-1.539,1.346
				c-0.548,0.462-1.026,0.885-1.438,1.273c-0.343,0.338-0.89,0.509-1.642,0.509c-0.274,0-1.061-0.207-2.36-0.619
				c-1.3-0.411-2.327-0.836-3.078-1.272c-0.549-0.291-1.027-0.751-1.438-1.382c-0.479-0.873-0.907-1.746-1.282-2.618
				c-0.377-0.873-0.702-1.721-0.976-2.546c-0.479-0.969-0.89-1.975-1.23-3.018c-0.344-1.042-0.719-2.097-1.129-3.165
				c-0.274,0.194-0.583,0.473-0.924,0.837c-0.343,0.363-0.651,0.715-0.924,1.055c-0.139,0.194-0.428,0.425-0.873,0.691
				c-0.445,0.267-0.666,0.594-0.666,0.982c-0.138-0.146-0.292-0.157-0.462-0.037c-0.171,0.122-0.359,0.182-0.564,0.182
				c-1.574,1.358-3.182,2.583-4.823,3.673c-1.643,1.091-3.012,2.218-4.104,3.382c-0.686,0.582-1.643,1.164-2.874,1.746
				c-1.231,0.582-2.224,1.018-2.976,1.309v0.8h-3.592c-0.411,0-0.993-0.134-1.745-0.4c-0.754-0.266-1.334-0.546-1.744-0.837
				c-0.344-0.146-0.667-0.424-0.976-0.836c-0.308-0.412-0.667-0.884-1.077-1.418c-0.411-0.533-0.702-1.055-0.872-1.564
				c-0.172-0.509-0.257-0.884-0.257-1.127c0-1.066,0.052-2.364,0.154-3.892c0.103-1.527,0.683-3.055,1.744-4.582
				c1.06-1.527,2.188-2.982,3.387-4.364c1.196-1.382,2.171-2.533,2.925-3.455c0.683-0.969,1.76-2.23,3.232-3.782
				c1.471-1.551,2.925-3.055,4.361-4.51c0.958,0.098,1.812,0.158,2.566,0.182c0.751,0.025,1.675,0.376,2.77,1.055
				c0.548,0.291,0.958,0.716,1.231,1.272c0.273,0.558,0.548,1.08,0.821,1.564c-0.343,0.194-0.633,0.461-0.871,0.8
				c-0.241,0.34-0.601,0.655-1.078,0.946v0.655c-0.89,0.97-1.899,2.085-3.028,3.346c-1.128,1.262-2.275,2.558-3.437,3.891
				c-1.165,1.334-2.173,2.655-3.028,3.964c-0.856,1.309-0.941,2.449-0.256,3.418v0.291c0.341-0.193,0.872-0.557,1.591-1.091
				c0.718-0.533,1.452-1.138,2.206-1.818c0.752-0.679,1.521-1.357,2.309-2.037c0.786-0.678,1.453-1.236,2.001-1.672
				c1.71-1.697,2.787-2.801,3.233-3.31c0.443-0.509,0.854-0.92,1.23-1.236c0.375-0.315,0.838-0.533,1.386-0.655
				c0.547-0.12,1.334-0.182,2.36-0.182c0.41,0,0.752,0.134,1.026,0.4c0.272,0.267,0.58,0.473,0.924,0.618
				c1.367,0.194,2.599,0.606,3.694,1.236c1.094,0.631,1.848,1.625,2.258,2.982c0.41,1.358,0.854,2.534,1.334,3.527
				c0.478,0.994,0.854,1.903,1.129,2.728c0.82-0.775,1.521-1.673,2.104-2.691c0.58-1.019,1.026-2.024,1.334-3.019
				c0.309-0.993,0.599-1.976,0.873-2.946c0.271-0.97,0.443-1.793,0.513-2.473c0.067-0.629,0.052-1.442-0.052-2.437
				c-0.103-0.993-0.153-1.952-0.153-2.873c0-0.339,0.067-0.788,0.205-1.346c0.136-0.557,0.205-1.151,0.205-1.782
				c0,0.146,0.137,0.34,0.411,0.583c0.066,0.146,0.29,0.243,0.667,0.291c0.374,0.049,0.563,0.121,0.563,0.218
				c0.137,0.049,0.222,0.158,0.257,0.328c0.033,0.17,0.188,0.352,0.462,0.545c0.272-0.291,0.58-0.436,0.923-0.436v0.582
				c0.753,0.291,1.471,0.437,2.156,0.437c0.82,1.067,1.487,2.292,2,3.673C120.679,56.861,120.935,58.086,120.935,59.152z"/>
		</g>
		<g>
			<path fill="#FFFFFF" d="M150.592,72.1c-0.548,0.146-0.991,0.328-1.334,0.545c-0.344,0.219-0.754,0.376-1.231,0.473
				c0,0.34,0.375,0.582,1.129,0.727c-0.204,0.194-0.395,0.449-0.564,0.764c-0.17,0.315-0.357,0.643-0.564,0.981
				c-0.889-0.146-1.557,0.085-2,0.691c-0.445,0.607-0.666,1.2-0.666,1.782c-0.616,0.146-1.25,0.255-1.898,0.327
				c-0.65,0.073-1.354,0.109-2.104,0.109c-0.274,0.097-0.325,0.17-0.153,0.219c0.17,0.048,0.358,0.072,0.563,0.072
				c-0.549,0.048-1.181,0.182-1.898,0.4c-0.719,0.218-1.352,0.351-1.898,0.4v0.218c0,0.097-0.138,0.146-0.41,0.146
				c-0.273,0-0.668-0.073-1.181-0.218c-0.513-0.145-0.991-0.254-1.437-0.327c-0.445-0.073-0.856-0.085-1.231-0.037
				c-0.377,0.048-0.599,0.242-0.667,0.582l-1.129-1.091c-1.506-0.243-2.616-0.557-3.335-0.946c-0.72-0.388-1.729-1.066-3.026-2.037
				c-0.479-0.193-0.806-0.339-0.976-0.437c-0.172-0.097-0.31-0.242-0.411-0.436c-0.104-0.193-0.273-0.582-0.513-1.164
				c-0.241-0.582-0.564-1.624-0.976-3.127c-0.273-1.455-0.257-2.606,0.051-3.455c0.309-0.848,0.564-1.564,0.771-2.146
				c0.205-0.679,0.649-1.648,1.334-2.91c0.685-1.26,1.401-2.448,2.155-3.563c0.41-0.582,0.889-1.273,1.438-2.073
				c0.547-0.8,1.195-1.636,1.949-2.509c0.342-0.338,0.785-0.751,1.334-1.237c0.547-0.484,0.991-0.969,1.334-1.455
				c0.752-0.484,1.316-0.92,1.693-1.309c0.375-0.388,1.076-0.8,2.104-1.237c0.477-0.146,1.094-0.338,1.848-0.582
				c0.752-0.242,1.06-0.557,0.922-0.945c-0.137,0.049-0.204,0.098-0.204,0.146c0,0.146,0.137,0.218,0.411,0.218
				c0.41,0,0.513-0.036,0.308-0.109c-0.205-0.073-0.103-0.109,0.31-0.109c0.271,0,0.699,0.121,1.281,0.363
				c0.581,0.243,1.111,0.413,1.592,0.509c0.135,0.34,0.205,0.654,0.205,0.945s0.17,0.437,0.514,0.437
				c0.408,0,0.546-0.037,0.408-0.109c-0.138-0.073-0.033-0.109,0.31-0.109c0.272,0,0.495,0.072,0.667,0.218
				c0.17,0.146,0.357,0.291,0.564,0.438c0,0.727,0.084,1.236,0.256,1.527c0.17,0.291,0.394,0.485,0.668,0.582
				c0.271,0.098,0.529,0.207,0.77,0.327c0.239,0.122,0.358,0.425,0.358,0.91c0,0.098-0.068,0.376-0.204,0.836
				c-0.139,0.462-0.292,0.995-0.462,1.6c-0.173,0.607-0.378,1.213-0.616,1.819c-0.24,0.606-0.462,1.152-0.667,1.637
				c-0.41,0.582-1.077,1.345-2.001,2.291s-1.831,1.807-2.721,2.582c-0.82,0.582-1.711,1.286-2.668,2.109
				c-0.959,0.825-1.916,1.589-2.873,2.291c-0.959,0.704-1.744,1.322-2.359,1.855c-0.616,0.534-0.924,0.897-0.924,1.091
				c0,0.291,0.359,0.619,1.076,0.982c0.72,0.363,1.387,0.643,2.002,0.836c0.342,0.145,0.837,0.218,1.488,0.218
				c0.648,0,1.145,0,1.487,0c0.546,0,1.077-0.097,1.591-0.291c0.514-0.193,1.18-0.169,2,0.073c1.369-0.291,2.686-0.582,3.952-0.873
				c1.265-0.291,2.411-0.533,3.438-0.727C149.907,72.002,150.249,72.1,150.592,72.1z"/>
		</g>
		<g>
			<path fill="#FFFFFF" d="M177.89,72.1c-0.55,0.146-0.992,0.328-1.334,0.545c-0.345,0.219-0.755,0.376-1.231,0.473
				c0,0.34,0.375,0.582,1.128,0.727c-0.204,0.194-0.395,0.449-0.564,0.764c-0.17,0.315-0.357,0.643-0.562,0.981
				c-0.891-0.146-1.559,0.085-2.002,0.691c-0.445,0.607-0.666,1.2-0.666,1.782c-0.616,0.146-1.249,0.255-1.899,0.327
				c-0.651,0.073-1.352,0.109-2.104,0.109c-0.273,0.097-0.324,0.17-0.152,0.219c0.169,0.048,0.357,0.072,0.564,0.072
				c-0.549,0.048-1.182,0.182-1.899,0.4c-0.718,0.218-1.353,0.351-1.897,0.4v0.218c0,0.097-0.139,0.146-0.41,0.146
				c-0.274,0-0.668-0.073-1.182-0.218c-0.513-0.146-0.992-0.254-1.437-0.327c-0.446-0.073-0.856-0.085-1.231-0.037
				c-0.377,0.048-0.6,0.242-0.667,0.582l-1.129-1.091c-1.506-0.243-2.616-0.557-3.335-0.946c-0.719-0.388-1.729-1.066-3.027-2.037
				c-0.479-0.193-0.806-0.339-0.975-0.437c-0.172-0.097-0.309-0.242-0.411-0.436c-0.103-0.193-0.274-0.582-0.513-1.164
				c-0.24-0.582-0.564-1.624-0.975-3.127c-0.275-1.455-0.258-2.606,0.051-3.455c0.308-0.848,0.563-1.564,0.77-2.146
				c0.205-0.679,0.649-1.648,1.334-2.91c0.684-1.26,1.401-2.448,2.155-3.563c0.41-0.582,0.888-1.273,1.437-2.073
				c0.547-0.8,1.196-1.636,1.95-2.509c0.343-0.338,0.786-0.751,1.334-1.237c0.548-0.484,0.991-0.969,1.334-1.455
				c0.752-0.484,1.316-0.92,1.693-1.309c0.375-0.388,1.077-0.8,2.104-1.237c0.478-0.146,1.094-0.338,1.848-0.582
				c0.752-0.242,1.06-0.557,0.924-0.945c-0.139,0.049-0.206,0.098-0.206,0.146c0,0.146,0.137,0.218,0.411,0.218
				c0.41,0,0.513-0.036,0.308-0.109c-0.205-0.073-0.103-0.109,0.308-0.109c0.272,0,0.701,0.121,1.283,0.363
				c0.58,0.243,1.111,0.413,1.59,0.509c0.138,0.34,0.207,0.654,0.207,0.945s0.17,0.437,0.513,0.437c0.409,0,0.547-0.037,0.409-0.109
				c-0.137-0.073-0.034-0.109,0.31-0.109c0.272,0,0.495,0.072,0.667,0.218c0.17,0.146,0.357,0.291,0.562,0.438
				c0,0.727,0.086,1.236,0.259,1.527c0.169,0.291,0.393,0.485,0.666,0.582c0.272,0.098,0.53,0.207,0.771,0.327
				c0.239,0.122,0.359,0.425,0.359,0.91c0,0.098-0.069,0.376-0.205,0.836c-0.139,0.462-0.292,0.995-0.462,1.6
				c-0.173,0.607-0.377,1.213-0.616,1.819c-0.24,0.606-0.461,1.152-0.667,1.637c-0.41,0.582-1.077,1.345-2.001,2.291
				s-1.832,1.807-2.721,2.582c-0.82,0.582-1.711,1.286-2.668,2.109c-0.959,0.825-1.916,1.589-2.873,2.291
				c-0.959,0.704-1.745,1.322-2.359,1.855c-0.615,0.534-0.924,0.897-0.924,1.091c0,0.291,0.359,0.619,1.077,0.982
				c0.719,0.363,1.386,0.643,2.001,0.836c0.342,0.145,0.837,0.218,1.488,0.218c0.648,0,1.145,0,1.487,0
				c0.546,0,1.077-0.097,1.591-0.291c0.514-0.193,1.181-0.169,2,0.073c1.369-0.291,2.686-0.582,3.953-0.873
				c1.264-0.291,2.41-0.533,3.438-0.727C177.204,72.002,177.546,72.1,177.89,72.1z"/>
		</g>
		<g>
			<path fill="#FFFFFF" d="M217.295,53.042c0,0.146-0.087,0.267-0.257,0.363c-0.172,0.098-0.359,0.219-0.564,0.364
				c0,0.194,0.17,0.291,0.514,0.291c-0.139,0.34-0.344,0.534-0.615,0.582c-0.273,0.049-0.139,0.243,0.41,0.582
				c-0.549,0.194-1.146,0.389-1.795,0.582c-0.652,0.194-1.217,0.389-1.693,0.582c0,0.146,0.085,0.254,0.257,0.327
				c0.171,0.073,0.358,0.158,0.564,0.254c-0.345,0.631-1.046,1.067-2.104,1.31c-1.062,0.243-2.104,0.436-3.131,0.582
				c-0.205,0.243-0.562,0.582-1.076,1.02c-0.514,0.436-0.94,0.655-1.283,0.655c-0.273,0-0.342-0.037-0.205-0.109
				c0.137-0.073,0.103-0.157-0.104-0.254c-0.273,0-0.408,0.218-0.408,0.655c-1.027,0.146-2.156,0.375-3.388,0.69
				c-1.231,0.316-2.463,0.619-3.694,0.91c-0.139,0.049-0.172,0.109-0.104,0.182c0.066,0.073,0.104,0.158,0.104,0.254
				c-0.139,0-0.205-0.024-0.205-0.073c0-0.048-0.205-0.072-0.617-0.072c-0.203,0-0.838,0.134-1.896,0.4
				c-1.062,0.267-2.002,0.521-2.822,0.764c-0.068,0.049-0.188,0.158-0.359,0.327c-0.172,0.17-0.324,0.353-0.461,0.545
				c-0.479,0.049-0.992,0.207-1.539,0.473c-0.549,0.267-1.027,0.498-1.438,0.691c-0.205,0.582-0.429,1.285-0.668,2.109
				c-0.24,0.825-0.445,1.612-0.615,2.364c-0.172,0.752-0.324,1.407-0.461,1.963c-0.139,0.559-0.205,0.91-0.205,1.055
				s0.032,0.389,0.103,0.727c0.067,0.34,0.17,0.716,0.308,1.127c0.137,0.413,0.272,0.789,0.411,1.127
				c0.136,0.34,0.205,0.558,0.205,0.654c0,0.243-0.205,0.498-0.616,0.764c-0.41,0.267-0.615,0.57-0.615,0.909
				c-0.138,0-0.377,0.023-0.719,0.072c-0.343,0.048-0.65,0.073-0.923,0.073c-0.344,0-0.583-0.158-0.719-0.473
				c-0.14-0.314-0.31-0.545-0.515-0.691c-1.573-1.018-2.429-1.987-2.564-2.909c-0.139-0.92-0.309-1.843-0.514-2.764
				c-0.204-0.533-0.188-1.466,0.052-2.8c0.239-1.333,0.323-2.896,0.257-4.691c0-0.097-0.172-0.314-0.513-0.654
				c-0.345-0.339-0.685-0.691-1.027-1.055c-0.342-0.364-0.649-0.691-0.923-0.982s-0.41-0.509-0.41-0.655
				c0-0.193,0.084-0.593,0.256-1.2c0.17-0.605,0.258-1.175,0.258-1.709c0.34-0.242,0.512-0.411,0.512-0.509
				c0.207-0.047,0.395-0.109,0.564-0.182c0.17-0.073,0.395-0.109,0.667-0.109c0.411,0,0.564,0.036,0.464,0.109
				c-0.104,0.072,0.051,0.109,0.461,0.109c0.271,0,0.563-0.121,0.873-0.364c0.308-0.242,0.494-0.484,0.562-0.728
				c0.271-0.533,0.564-1.32,0.872-2.363c0.309-1.042,0.599-2.157,0.872-3.346c0.273-1.188,0.564-2.364,0.873-3.528
				c0.308-1.164,0.598-2.133,0.871-2.909c0.548-1.6,1.182-3.211,1.898-4.837c0.719-1.624,1.387-3.26,2.002-4.909
				c0.272-0.775,0.598-1.637,0.975-2.583c0.375-0.945,0.805-1.878,1.283-2.8c0.342-0.727,0.648-1.587,0.924-2.582
				c0.271-0.994,0.924-1.733,1.949-2.219c0.205-0.146,0.514-0.266,0.924-0.364c0.41-0.097,0.684-0.146,0.82-0.146
				c0.411,0,0.805,0.194,1.182,0.582c0.375,0.389,0.733,0.582,1.076,0.582c0.342,0,0.564-0.011,0.668-0.036
				c0.103-0.024,0.256-0.036,0.461-0.036l-0.308,0.072v0.364c0,0.146,0.103,0.389,0.308,0.728c0.205,0.34,0.444,0.68,0.719,1.018
				c0.273,0.34,0.496,0.68,0.668,1.019c0.17,0.34,0.256,0.582,0.256,0.727c0,0.194-0.119,0.631-0.359,1.31
				c-0.238,0.679-0.529,1.261-0.871,1.746c0.205,0.485,0.308,0.898,0.308,1.236c-1.025,2.473-2.069,4.91-3.13,7.31
				c-1.062,2.4-2.104,4.74-3.129,7.019c-0.207,0.971-0.498,2.013-0.873,3.128c-0.377,1.116-0.771,2.207-1.182,3.273v0.364
				c0.342,0.145,0.65,0.207,0.926,0.182c0.271-0.023,0.648-0.037,1.129-0.037c0.545-0.145,1.265-0.218,2.153-0.218
				c0.343,0,0.479,0.061,0.411,0.182s0.102,0.181,0.514,0.181c0.342,0,0.733-0.06,1.181-0.181c0.442-0.121,0.905-0.206,1.386-0.255
				c2.324-0.291,4.805-0.521,7.439-0.691C211.153,53.418,214.078,53.238,217.295,53.042z"/>
		</g>
	</g>
	<g>
		<g>
			<path fill="#FFFFFF" d="M289.148,29.974c-0.479,0.146-1.112,0.316-1.897,0.509c-0.788,0.194-1.524,0.376-2.207,0.545
				c-0.687,0.171-1.317,0.316-1.899,0.437c-0.58,0.122-0.939,0.182-1.076,0.182c-0.344,0-0.514-0.06-0.514-0.182
				c0-0.12-0.138-0.182-0.41-0.182c-0.273,0-0.754,0.134-1.437,0.4c-0.687,0.267-1.269,0.4-1.745,0.4
				c-3.012,0.243-5.766,0.498-8.261,0.764c-2.499,0.267-5.048,0.667-7.646,1.2c-0.138,0.776-0.272,1.649-0.409,2.619
				c-0.139,0.971-0.344,1.916-0.615,2.836c-0.205,0.34-0.396,0.776-0.564,1.309c-0.172,0.535-0.326,0.995-0.462,1.382
				c-0.274,0.825-0.549,1.612-0.821,2.364c-0.273,0.752-0.479,1.516-0.615,2.291c-0.205,0.825-0.498,1.758-0.873,2.8
				c-0.375,1.043-0.717,2.134-1.024,3.273c-0.31,1.14-0.563,2.243-0.771,3.31c-0.205,1.066-0.309,2.014-0.309,2.836l-4.207,20.002
				c-0.479,0.098-0.873,0.254-1.181,0.473c-0.308,0.221-0.564,0.4-0.771,0.545l-0.513-0.363c-0.344,0.242-0.601,0.484-0.771,0.727
				c-0.172,0.242-0.463,0.365-0.873,0.365c-0.273,0-0.89-0.27-1.848-0.801c-0.958-0.533-1.812-1.02-2.564-1.455
				c0.272-0.291,0.615-0.568,1.025-0.836c0.411-0.266,0.616-0.521,0.616-0.764c0.136-1.406,0.257-2.789,0.358-4.146
				c0.104-1.357,0.222-2.738,0.359-4.146c0.066-0.582,0.104-1.297,0.104-2.145c0-0.85,0.033-1.686,0.102-2.51
				c0.411-2.812,0.873-5.662,1.387-8.547c0.514-2.884,1.008-5.757,1.487-8.619l3.694-11.419c-0.549,0-1.113,0-1.693,0
				c-0.582,0-1.215,0.025-1.898,0.073c-0.547,0.049-1.316,0.134-2.309,0.254c-0.992,0.121-2.088,0.254-3.283,0.4
				c-1.197,0.146-2.412,0.291-3.645,0.437c-1.23,0.146-2.359,0.243-3.387,0.291c-0.139,0-0.307-0.011-0.514-0.036
				c-0.205-0.024-0.513-0.036-0.924-0.036l-0.41,0.363c-0.615-0.146-1.352-0.157-2.205-0.037c-0.856,0.122-1.488,0.182-1.898,0.182
				c-0.139,0-0.446-0.072-0.924-0.218c-0.479-0.146-0.975-0.315-1.488-0.509c-0.514-0.193-0.992-0.412-1.438-0.655
				c-0.445-0.242-0.805-0.412-1.078-0.509c-0.547-0.338-1.01-0.751-1.385-1.236c-0.377-0.484-0.736-0.945-1.078-1.382
				c-0.343-0.484-0.513-1.03-0.513-1.637c0-0.604-0.104-1.151-0.309-1.637c0-0.097,0.052-0.242,0.155-0.436
				c0.102-0.193,0.322-0.291,0.666-0.291c0.342,0,0.905,0.049,1.692,0.146c0.786,0.098,1.283,0.146,1.488,0.146
				c0.752,0,1.438-0.048,2.053-0.146c0.615-0.097,1.06-0.266,1.334-0.509l0.103,0.073c0,0.098,0.067,0.146,0.205,0.146
				c0.41,0.098,0.838,0.146,1.283,0.146c0.443,0,0.872,0.049,1.282,0.146l23.192-2.11c0.89-0.096,1.848-0.146,2.873-0.146
				s1.951,0,2.771,0v-0.218c0-0.097,0.17-0.146,0.514-0.146c2.53,0,4.789,0,6.773,0c1.982,0,3.984,0.049,6.003,0.146
				c2.019,0.098,4.19,0.268,6.517,0.509c2.326,0.243,5.097,0.607,8.312,1.091c-0.273,0.194-0.24,0.364,0.104,0.509
				c0.066,0.146-0.205,0.389-0.82,0.728c0.136,0.098,0.289,0.218,0.461,0.363C288.755,29.829,288.943,29.927,289.148,29.974z"/>
		</g>
		<g>
			<path fill="#FFFFFF" d="M293.354,62.486c0,2.668-1.3,5.311-3.898,7.928c-2.602,2.619-5.782,5.092-9.543,7.418
				c-0.206,0.1-0.36,0.268-0.463,0.51s-0.223,0.438-0.359,0.582c-2.326,1.018-4.447,1.527-6.361,1.527
				c-1.574,0-2.857-0.279-3.85-0.836s-2.001-1.127-3.027-1.709c-0.343-0.193-0.666-0.605-0.975-1.238
				c-0.309-0.629-0.771-0.943-1.385-0.943c-0.139-0.438-0.309-0.982-0.514-1.639c-0.205-0.654-0.309-1.078-0.309-1.271
				c0-0.775,0.221-1.709,0.667-2.801c0.444-1.092,0.938-2.146,1.487-3.164c0.547-1.02,1.078-1.916,1.591-2.691
				c0.514-0.775,0.905-1.309,1.181-1.6c0.137-0.098,0.205-0.279,0.205-0.545c0-0.268,0.104-0.475,0.309-0.619
				c0.342-0.438,0.752-0.873,1.231-1.309c0.478-0.438,0.854-0.873,1.128-1.309c0.205-0.098,0.342-0.146,0.41-0.146
				s0.206-0.023,0.411-0.072s0.31-0.158,0.31-0.328s0.102-0.352,0.307-0.545c0.272-0.34,0.684-0.619,1.23-0.836
				c0.547-0.219,0.991-0.498,1.335-0.836c0.205-0.193,0.308-0.426,0.308-0.691s0.104-0.521,0.309-0.764
				c-0.139,0-0.343-0.037-0.615-0.109c-0.275-0.073-0.514,0.012-0.719,0.254c0-0.193-0.068-0.339-0.205-0.438
				c-0.206,0.099-0.309,0.291-0.309,0.582c0-0.338-0.24-0.509-0.719-0.509l0.207-0.073c0.065,0,0.205-0.072,0.408-0.218
				c-0.138-0.679,0.119-1.26,0.77-1.745c0.649-0.484,1.438-0.91,2.361-1.272c0.924-0.364,1.829-0.655,2.719-0.873
				c0.89-0.218,1.472-0.424,1.746-0.618c0.271,0.389,0.615,0.545,1.025,0.473c0.41-0.072,0.889-0.011,1.438,0.182
				c0.271,0.146,0.752,0.461,1.437,0.944c0.685,0.485,1.265,0.898,1.745,1.236c0,0.049,0.066,0.146,0.205,0.291
				c0.136,0.243,0.271,0.413,0.41,0.51c0.137,0.049,0.308,0.072,0.513,0.072s0.376,0.049,0.515,0.146
				c1.572,1.552,2.854,3.066,3.848,4.545C292.857,59.42,293.354,60.936,293.354,62.486z M284.837,60.16
				c0-0.291-0.138-0.715-0.41-1.273c-0.274-0.557-0.548-1.029-0.821-1.418c-0.548,0.775-1.301,1.59-2.257,2.438
				c-0.96,0.848-1.678,1.539-2.155,2.072c-0.549,0.727-1.197,1.6-1.949,2.619c-0.754,1.018-1.473,2-2.155,2.945
				c-0.685,0.945-1.249,1.795-1.692,2.545c-0.445,0.754-0.666,1.178-0.666,1.273v0.654c0.682-0.338,1.469-0.787,2.358-1.346
				c0.89-0.557,1.472-0.836,1.745-0.836c0.341,0,0.375,0.072,0.102,0.219c-0.272,0.145-0.205,0.219,0.206,0.219
				c0.272,0,0.685-0.254,1.231-0.764c0.546-0.51,1.094-1.066,1.642-1.674c0.548-0.605,1.077-1.176,1.591-1.709
				c0.515-0.533,0.805-0.848,0.873-0.945c0.137-0.146,0.342-0.484,0.615-1.02c0.271-0.533,0.546-1.09,0.82-1.672
				c0.271-0.582,0.496-1.102,0.668-1.562C284.751,60.463,284.837,60.207,284.837,60.16z M282.477,56.887v-1.092h-0.514v1.092
				H282.477z"/>
		</g>
		<g>
			<path fill="#FFFFFF" d="M323.32,62.486c0,2.668-1.301,5.311-3.9,7.928c-2.602,2.619-5.781,5.092-9.543,7.418
				c-0.206,0.1-0.359,0.268-0.462,0.51s-0.224,0.438-0.359,0.582c-2.325,1.018-4.448,1.527-6.362,1.527
				c-1.574,0-2.857-0.279-3.849-0.836c-0.993-0.557-2.001-1.127-3.028-1.709c-0.343-0.193-0.666-0.605-0.975-1.238
				c-0.309-0.629-0.77-0.943-1.385-0.943c-0.139-0.438-0.309-0.982-0.514-1.639c-0.205-0.654-0.309-1.078-0.309-1.271
				c0-0.775,0.223-1.709,0.667-2.801s0.938-2.146,1.488-3.164c0.547-1.02,1.077-1.916,1.591-2.691s0.905-1.309,1.18-1.6
				c0.137-0.098,0.205-0.279,0.205-0.545c0-0.268,0.104-0.475,0.309-0.619c0.342-0.438,0.753-0.873,1.231-1.309
				c0.478-0.438,0.854-0.873,1.13-1.309c0.203-0.098,0.34-0.146,0.408-0.146s0.206-0.023,0.411-0.072s0.31-0.158,0.31-0.328
				s0.103-0.352,0.308-0.545c0.272-0.34,0.683-0.619,1.231-0.836c0.547-0.219,0.989-0.498,1.332-0.836
				c0.207-0.193,0.31-0.426,0.31-0.691s0.103-0.521,0.308-0.764c-0.138,0-0.343-0.037-0.615-0.109
				c-0.273-0.073-0.514,0.012-0.719,0.254c0-0.193-0.068-0.339-0.205-0.438c-0.205,0.099-0.308,0.291-0.308,0.582
				c0-0.338-0.241-0.509-0.72-0.509l0.207-0.073c0.065,0,0.205-0.072,0.41-0.218c-0.14-0.679,0.117-1.26,0.77-1.745
				c0.648-0.484,1.438-0.91,2.359-1.272c0.924-0.364,1.83-0.655,2.72-0.873c0.89-0.218,1.471-0.424,1.745-0.618
				c0.271,0.389,0.615,0.545,1.025,0.473c0.411-0.072,0.889-0.011,1.438,0.182c0.273,0.146,0.752,0.461,1.437,0.944
				c0.685,0.485,1.267,0.898,1.744,1.236c0,0.049,0.067,0.146,0.206,0.291c0.137,0.243,0.271,0.413,0.41,0.51
				c0.137,0.049,0.308,0.072,0.514,0.072c0.205,0,0.375,0.049,0.514,0.146c1.572,1.552,2.855,3.066,3.849,4.545
				C322.822,59.42,323.32,60.936,323.32,62.486z M314.801,60.16c0-0.291-0.138-0.715-0.41-1.273
				c-0.273-0.557-0.548-1.029-0.82-1.418c-0.549,0.775-1.301,1.59-2.258,2.438c-0.959,0.848-1.678,1.539-2.156,2.072
				c-0.547,0.727-1.196,1.6-1.948,2.619c-0.753,1.018-1.472,2-2.155,2.945c-0.686,0.945-1.249,1.795-1.693,2.545
				c-0.444,0.754-0.666,1.178-0.666,1.273v0.654c0.684-0.338,1.471-0.787,2.359-1.346c0.889-0.557,1.471-0.836,1.745-0.836
				c0.342,0,0.375,0.072,0.103,0.219c-0.273,0.145-0.205,0.219,0.205,0.219c0.272,0,0.685-0.254,1.231-0.764
				s1.094-1.066,1.644-1.674c0.547-0.605,1.076-1.176,1.59-1.709s0.804-0.848,0.873-0.945c0.136-0.146,0.34-0.484,0.614-1.02
				c0.272-0.533,0.548-1.09,0.821-1.672c0.271-0.582,0.495-1.102,0.667-1.562C314.715,60.463,314.801,60.207,314.801,60.16z
				 M312.441,56.887v-1.092h-0.513v1.092H312.441z"/>
		</g>
		<g>
			<path fill="#FFFFFF" d="M365.393,54.195c0,0.146-0.087,0.267-0.257,0.363c-0.172,0.099-0.358,0.219-0.563,0.363
				c0,0.194,0.17,0.291,0.513,0.291c-0.138,0.34-0.343,0.533-0.614,0.582c-0.273,0.049-0.139,0.242,0.409,0.582
				c-0.548,0.193-1.146,0.389-1.795,0.582c-0.651,0.193-1.218,0.389-1.692,0.582c0,0.146,0.084,0.254,0.256,0.326
				c0.17,0.074,0.358,0.158,0.564,0.256c-0.346,0.631-1.044,1.066-2.104,1.311c-1.062,0.242-2.104,0.436-3.131,0.582
				c-0.205,0.242-0.563,0.582-1.078,1.018c-0.513,0.438-0.939,0.654-1.281,0.654c-0.274,0-0.344-0.037-0.205-0.109
				c0.137-0.072,0.104-0.156-0.104-0.254c-0.273,0-0.41,0.219-0.41,0.654c-1.025,0.146-2.155,0.377-3.387,0.691
				c-1.23,0.316-2.463,0.617-3.695,0.908c-0.138,0.049-0.17,0.109-0.103,0.184c0.067,0.072,0.103,0.156,0.103,0.254
				c-0.138,0-0.205-0.023-0.205-0.072s-0.205-0.074-0.614-0.074c-0.205,0-0.839,0.135-1.897,0.4
				c-1.062,0.268-2.002,0.521-2.822,0.764c-0.069,0.049-0.188,0.158-0.359,0.328c-0.172,0.17-0.325,0.352-0.462,0.545
				c-0.479,0.049-0.992,0.207-1.539,0.473c-0.549,0.268-1.026,0.498-1.437,0.691c-0.205,0.582-0.43,1.285-0.668,2.109
				c-0.24,0.824-0.444,1.611-0.615,2.363c-0.172,0.752-0.325,1.406-0.463,1.965c-0.138,0.557-0.205,0.908-0.205,1.055
				c0,0.145,0.033,0.389,0.104,0.727c0.066,0.34,0.17,0.715,0.309,1.127c0.137,0.412,0.271,0.789,0.41,1.127
				c0.137,0.34,0.205,0.559,0.205,0.654c0,0.244-0.205,0.498-0.615,0.764c-0.41,0.268-0.615,0.57-0.615,0.91
				c-0.139,0-0.377,0.023-0.719,0.072c-0.344,0.049-0.651,0.074-0.924,0.074c-0.344,0-0.582-0.158-0.719-0.475
				c-0.139-0.314-0.309-0.545-0.514-0.689c-1.574-1.02-2.43-1.988-2.565-2.91c-0.138-0.92-0.308-1.842-0.513-2.764
				c-0.205-0.533-0.188-1.467,0.051-2.801c0.239-1.332,0.324-2.896,0.257-4.689c0-0.098-0.172-0.314-0.513-0.654
				c-0.344-0.34-0.686-0.691-1.025-1.055c-0.345-0.365-0.652-0.691-0.925-0.982c-0.274-0.291-0.409-0.51-0.409-0.654
				c0-0.193,0.084-0.594,0.256-1.199c0.17-0.607,0.256-1.176,0.256-1.709c0.343-0.242,0.515-0.412,0.515-0.51
				c0.205-0.049,0.394-0.109,0.563-0.184c0.17-0.072,0.394-0.107,0.666-0.107c0.412,0,0.565,0.035,0.463,0.107
				c-0.104,0.074,0.052,0.109,0.461,0.109c0.273,0,0.564-0.121,0.873-0.363s0.496-0.484,0.564-0.729
				c0.271-0.533,0.564-1.32,0.872-2.363s0.599-2.157,0.872-3.346c0.271-1.188,0.564-2.365,0.872-3.529
				c0.31-1.164,0.598-2.133,0.872-2.909c0.548-1.6,1.181-3.212,1.898-4.837c0.719-1.624,1.385-3.261,2.002-4.91
				c0.271-0.775,0.598-1.637,0.975-2.582c0.376-0.946,0.804-1.878,1.283-2.8c0.341-0.727,0.648-1.587,0.924-2.582
				c0.271-0.993,0.923-1.733,1.949-2.218c0.205-0.146,0.514-0.266,0.922-0.364c0.412-0.097,0.685-0.146,0.822-0.146
				c0.41,0,0.803,0.194,1.181,0.582c0.375,0.389,0.733,0.582,1.077,0.582c0.342,0,0.563-0.011,0.668-0.037
				c0.103-0.023,0.256-0.036,0.461-0.036l-0.309,0.072V26.7c0,0.146,0.104,0.389,0.309,0.728c0.205,0.34,0.443,0.68,0.719,1.019
				c0.271,0.34,0.495,0.68,0.667,1.019c0.17,0.34,0.257,0.582,0.257,0.727c0,0.194-0.12,0.631-0.359,1.31
				c-0.239,0.679-0.529,1.261-0.871,1.746c0.205,0.485,0.308,0.897,0.308,1.236c-1.026,2.473-2.069,4.91-3.13,7.31
				c-1.062,2.4-2.104,4.74-3.13,7.019c-0.205,0.971-0.497,2.012-0.873,3.128s-0.771,2.207-1.181,3.272v0.363
				c0.342,0.145,0.65,0.207,0.924,0.182c0.272-0.023,0.649-0.037,1.13-0.037c0.547-0.145,1.265-0.219,2.155-0.219
				c0.34,0,0.478,0.062,0.41,0.184c-0.07,0.121,0.103,0.182,0.512,0.182c0.343,0,0.734-0.061,1.182-0.182
				c0.443-0.121,0.906-0.207,1.386-0.254c2.324-0.291,4.806-0.521,7.439-0.691C359.252,54.571,362.177,54.391,365.393,54.195z"/>
		</g>
		<g>
			<path fill="#FFFFFF" d="M398.848,71.797c-0.685,0.484-1.812,1.043-3.387,1.674v0.145c0,0.049,0.066,0.098,0.205,0.146
				c0.411-0.193,0.837-0.303,1.283-0.328c0.443-0.023,0.871-0.109,1.281-0.254c-0.41,0.146-0.719,0.438-0.924,0.873
				c-0.205,0.438-0.479,0.775-0.82,1.02c-0.273,0.193-0.615,0.34-1.025,0.436c-0.41,0.098-0.719,0.291-0.923,0.582
				c-0.206,0.098-0.326,0.291-0.359,0.582c-0.036,0.291-0.12,0.533-0.258,0.727c-0.41,0.146-0.819,0.4-1.229,0.764
				c-0.412,0.365-0.994,0.74-1.744,1.127c0.271,0.195,0.477,0.291,0.615,0.291c-0.41,0.146-1.012,0.4-1.798,0.766
				c-0.786,0.363-1.385,0.545-1.795,0.545c-0.343,0-0.925-0.037-1.745-0.109s-1.437-0.109-1.847-0.109
				c-0.067,0-0.31-0.086-0.719-0.254c-0.41-0.172-0.82-0.354-1.231-0.547c-0.41-0.193-0.805-0.387-1.181-0.582
				c-0.376-0.191-0.634-0.312-0.771-0.361c-0.138-0.193-0.308-0.461-0.513-0.801s-0.446-0.631-0.718-0.873
				c-0.139-0.291-0.396-0.617-0.771-0.98c-0.377-0.365-0.666-0.691-0.871-0.982c-0.754-1.6-1.164-3.176-1.231-4.729
				c-0.069-0.775-0.087-1.539-0.052-2.291c0.033-0.75,0.154-1.539,0.358-2.363l-0.204-1.018c-2.943,1.355-5.541,3.539-7.801,6.545
				c-2.257,3.008-4.72,5.357-7.389,7.055v0.074c0,0.049,0.103,0.072,0.308,0.072c-0.205,0-0.291-0.012-0.256-0.037
				c0.033-0.023-0.12-0.035-0.462-0.035c-0.273,0-0.616,0.084-1.025,0.254c-0.41,0.17-0.856,0.352-1.335,0.545
				c-0.274-0.387-0.562-0.727-0.872-1.018c-0.309-0.291-0.634-0.629-0.976-1.02c-0.272-0.291-0.479-0.629-0.615-1.018
				c-0.138-0.389-0.446-0.752-0.924-1.092c0-0.533-0.087-1.15-0.256-1.854c-0.173-0.703-0.259-1.201-0.259-1.492
				c0-0.773,0.273-2.398,0.822-4.873c0.547-2.473,1.161-4.473,1.848-6c0.684-1.527,1.334-2.873,1.949-4.037s0.924-1.769,0.924-1.818
				c0-0.338,0.119-0.69,0.358-1.055c0.238-0.363,0.394-0.691,0.462-0.982c0.272-0.192,0.479-0.363,0.615-0.508
				c0.271-0.97,0.701-2.084,1.283-3.347c0.581-1.26,1.146-2.352,1.693-3.273c0.205-0.436,0.17-0.824-0.104-1.164
				c0.342-0.728,0.77-1.563,1.282-2.509c0.514-0.945,1.043-1.928,1.592-2.946c0.547-1.019,1.11-2,1.692-2.946
				c0.58-0.945,1.076-1.806,1.488-2.582c0.752-1.115,1.385-1.988,1.897-2.618c0.513-0.63,1.452-0.946,2.821-0.946
				c0.41,0,0.854,0.098,1.334,0.291c0.479,0.194,0.925,0.291,1.334,0.291c0.207,0.291,0.375,0.437,0.514,0.437
				c0.411,0.534,0.686,1.226,0.822,2.073c0.136,0.849,0.205,1.443,0.205,1.782c0,0.243-0.069,0.643-0.205,1.2
				c-0.139,0.558-0.344,1.031-0.616,1.418l-14.47,27.856c0.478,0,0.938-0.229,1.385-0.689c0.443-0.459,0.837-0.812,1.181-1.055
				c0.41-0.34,0.976-0.715,1.693-1.127s1.282-0.789,1.692-1.127c0.137-0.146,0.599-0.521,1.387-1.127
				c0.785-0.605,1.642-1.273,2.564-2c0.924-0.729,1.797-1.371,2.616-1.928c0.821-0.559,1.368-0.836,1.644-0.836
				c0.271,0,0.527,0.121,0.77,0.363c0.238,0.242,0.496,0.389,0.77,0.436c0.41,0.049,0.939,0.062,1.59,0.037
				c0.65-0.023,1.216,0.062,1.695,0.254c1.846,0.922,3.01,1.844,3.488,2.766c0.479,0.92,0.719,1.891,0.719,2.908l-1.746,10.256
				c0,0.193,0.034,0.484,0.104,0.873c0.065,0.389,0.239,0.752,0.513,1.09c0.616-0.145,0.977-0.182,1.078-0.109
				c0.104,0.074,0.324,0.109,0.667,0.109c0.205,0,0.632-0.096,1.282-0.291c0.648-0.191,1.385-0.424,2.207-0.689
				c0.82-0.268,1.656-0.521,2.514-0.764c0.854-0.242,1.488-0.389,1.898-0.438c0.479-0.049,0.976-0.146,1.488-0.291
				C397.867,72.092,398.369,71.941,398.848,71.797z"/>
		</g>
	</g>
	<g>
		<g>
			<path fill="#FFFFFF" d="M457.742,40.752c0,0.145-0.067,0.533-0.204,1.164c-0.138,0.631-0.274,1.139-0.411,1.525
				c-0.068,0.1-0.188,0.27-0.357,0.512c-0.173,0.242-0.326,0.508-0.463,0.799c-0.273,0-0.582-0.121-0.924-0.363
				c-0.138,0.145-0.273,0.254-0.411,0.328c-0.138,0.072-0.272,0.182-0.409,0.328h0.104c0-0.098,0.033-0.17,0.104-0.221v-0.072
				c0-0.047-0.035-0.098-0.104-0.146c-0.411,0.1-0.736,0.219-0.977,0.365c-0.24,0.145-0.496,0.316-0.77,0.508
				c0-0.145,0-0.277,0-0.398s-0.035-0.23-0.104-0.328c-0.344-0.098-0.754-0.314-1.23-0.654c-0.479-0.338-0.891-0.654-1.23-0.945
				c-0.069-0.096-0.104-0.17-0.104-0.219c0-0.047-0.034-0.145-0.103-0.291c0.067-0.145,0.103-0.338,0.103-0.582
				c0-0.242,0.067-0.459,0.206-0.654h-0.206c-0.204,0-0.308-0.072-0.308-0.219c0-0.191,0-0.436,0-0.727s0.067-0.557,0.205-0.799
				c0.067-0.049,0.137-0.061,0.205-0.037c0.067,0.023,0.137-0.012,0.205-0.109l0.309-0.363c-0.069-0.098-0.069-0.121,0-0.072
				c0.066,0.049,0.104-0.049,0.104-0.291c0-0.34-0.068-0.766-0.206-1.273s-0.325-1.041-0.563-1.6
				c-0.24-0.557-0.514-1.055-0.821-1.49c-0.308-0.438-0.633-0.752-0.976-0.947c-0.479-0.291-1.129-0.604-1.948-0.945
				c-0.821-0.338-1.37-0.508-1.644-0.508c-0.343,0-0.445,0.025-0.308,0.072c0.138,0.049,0.033,0.074-0.308,0.074
				c-0.344,0-0.549-0.061-0.616-0.184c-0.068-0.121-0.205-0.205-0.41-0.254c-0.069-0.049-0.41-0.072-1.026-0.072
				c-0.273,0-0.719,0.121-1.334,0.363s-1.248,0.521-1.897,0.836c-0.651,0.316-1.249,0.619-1.798,0.91
				c-0.547,0.291-0.854,0.484-0.922,0.582c-0.41,0.484-0.821,1.031-1.231,1.637c-0.41,0.607-0.685,1.178-0.819,1.709
				c-0.275,0.438-0.412,0.898-0.412,1.383c0,0.242,0.017,0.727,0.053,1.455c0.033,0.727,0.152,1.357,0.359,1.891
				c0,0.193,0.135,0.424,0.409,0.689c0.271,0.268,0.443,0.547,0.513,0.838c0.205,0.533,0.323,1.162,0.359,1.891
				c0.033,0.727,0.359,1.381,0.975,1.963c0.342,0.777,0.734,1.637,1.182,2.582c0.443,0.945,0.836,1.832,1.18,2.656
				c0,0.098,0.085,0.217,0.258,0.363c0.17,0.146,0.322,0.314,0.461,0.51c0.41,0.824,0.785,1.611,1.129,2.363
				c0.342,0.754,0.684,1.504,1.025,2.256s0.734,1.562,1.182,2.436c0.442,0.873,0.975,1.842,1.59,2.91
				c0.342,0.436,0.668,1.08,0.976,1.926c0.31,0.85,0.58,1.76,0.821,2.729c0.238,0.971,0.443,1.916,0.615,2.838
				c0.17,0.92,0.256,1.746,0.256,2.473c0,0.146-0.068,0.617-0.205,1.418c-0.139,0.799-0.344,1.49-0.614,2.072
				c-0.069,0.146-0.052,0.303,0.051,0.473s0.085,0.354-0.051,0.545c-0.138,0.486-0.515,1.02-1.129,1.602
				c-0.616,0.582-1.335,1.066-2.155,1.455c-0.138,0.098-0.359,0.266-0.667,0.508c-0.31,0.244-0.634,0.461-0.976,0.656
				c-0.068,0-0.189,0-0.358,0c-0.172,0-0.325,0.021-0.463,0.07c-0.753,0.291-1.677,0.521-2.771,0.691
				c-1.096,0.17-2.02,0.254-2.771,0.254h-2.258c-0.138,0-0.479-0.061-1.026-0.182c-0.548-0.121-1.095-0.268-1.642-0.438
				c-0.548-0.17-1.095-0.316-1.644-0.436c-0.548-0.121-0.889-0.184-1.024-0.184c-0.345,0-0.429,0.037-0.257,0.111
				c0.17,0.072,0.084,0.107-0.258,0.107c-0.205,0-0.513-0.145-0.924-0.436c-0.41-0.291-0.685-0.533-0.82-0.729
				c-0.41-0.289-1.164-0.629-2.258-1.018c-1.096-0.389-2.019-0.898-2.771-1.527c-0.685-0.533-1.539-1.311-2.565-2.328
				c-1.025-1.018-1.642-1.891-1.847-2.617c-0.274-0.291-0.531-0.656-0.771-1.092c-0.24-0.438-0.563-0.873-0.976-1.309
				c0-0.098,0.085-0.207,0.257-0.328c0.17-0.121,0.188-0.229,0.051-0.328c-0.067-0.145-0.272-0.314-0.615-0.508
				c0.207-0.291,0.24-0.691,0.104-1.201c-0.138-0.508-0.205-0.932-0.205-1.271c0-0.193-0.103-0.338-0.308-0.438
				c-0.205-0.096-0.31-0.266-0.31-0.508s0.053-0.389,0.155-0.438c0.103-0.047,0.153-0.146,0.153-0.291
				c0.136,0,0.222,0.062,0.256,0.182c0.034,0.123,0.188,0.232,0.462,0.328c0-0.338-0.052-0.691-0.153-1.055
				c-0.104-0.363-0.052-0.787,0.153-1.273c0.067,0,0.272,0.195,0.616,0.582c0.205-0.387,0.238-0.799,0.104-1.236
				c-0.139-0.436-0.309-0.848-0.514-1.234c0.205,0,0.271-0.062,0.205-0.184c-0.068-0.121,0.066-0.182,0.41-0.182
				c0.341,0,0.478,0.025,0.41,0.074c-0.069,0.049,0,0.072,0.205,0.072c0-0.242,0.067-0.473,0.205-0.691
				c0.137-0.219,0.205-0.473,0.205-0.764c0,0.244-0.052,0.484-0.154,0.729c-0.103,0.242-0.086,0.508,0.053,0.799
				c0.066,0.146,0.137,0.207,0.205,0.184c0.066-0.025,0.137-0.012,0.205,0.035c0.206,0.098,0.291,0.363,0.257,0.801
				c-0.035,0.436,0.222,0.68,0.771,0.727c0.066,0.486,0.271,1.018,0.615,1.6l0.514-0.363c0,0.484,0.084,1.031,0.256,1.637
				c0.171,0.607,0.375,1.201,0.615,1.783c0.239,0.582,0.515,1.104,0.821,1.562c0.308,0.461,0.599,0.789,0.873,0.982
				c0.341,0.242,0.718,0.666,1.128,1.271c0.41,0.607,0.786,0.91,1.129,0.91c0.272,0,0.359-0.037,0.258-0.109
				c-0.104-0.072-0.154-0.156-0.154-0.256c0.205,0.34,0.719,0.691,1.539,1.057c0.82,0.363,1.777,0.689,2.873,0.98
				c1.094,0.291,2.188,0.535,3.283,0.729s2.019,0.291,2.771,0.291c0.479,0,0.889-0.047,1.23-0.146l0.514,0.291
				c0.136-0.096,0.445-0.205,0.924-0.328c0.479-0.121,0.854-0.229,1.129-0.326c0.41-0.193,0.854-0.473,1.334-0.836
				c0.479-0.363,0.821-0.764,1.026-1.199c0.137-0.291,0.204-0.594,0.204-0.91c0-0.314,0-0.619,0-0.91
				c0-0.242-0.034-0.35-0.103-0.326c-0.069,0.023-0.103,0.012-0.103-0.037c0.066-0.291,0.117-0.619,0.154-0.982
				c0.032-0.363-0.019-0.689-0.154-0.98c-0.41-0.971-0.907-2.061-1.487-3.273c-0.583-1.211-1.198-2.473-1.849-3.781
				c-0.65-1.311-1.353-2.607-2.104-3.893c-0.754-1.283-1.507-2.484-2.258-3.6c0-0.098-0.309-0.812-0.924-2.146
				c-0.616-1.332-1.283-2.873-2.002-4.619s-1.385-3.479-2.001-5.199c-0.615-1.721-0.923-3.02-0.923-3.893
				c0-0.098,0.051-0.629,0.154-1.6c0.102-0.969,0.256-1.77,0.461-2.4c0.135-0.629,0.514-1.418,1.129-2.363
				c0.614-0.945,1.265-1.83,1.949-2.654c0-0.098-0.052-0.158-0.154-0.182c-0.103-0.025-0.152-0.109-0.152-0.254
				c0.41-0.098,0.803-0.293,1.18-0.584c0.375-0.291,0.7-0.438,0.975-0.438c0.343,0,0.41,0.062,0.205,0.184s-0.17,0.182,0.104,0.182
				c0.341,0,0.905-0.279,1.692-0.836c0.785-0.559,1.42-0.838,1.898-0.838c1.094-0.047,2.359-0.109,3.797-0.182
				s2.324-0.109,2.668-0.109c0.067,0,0.324,0.049,0.771,0.146c0.444,0.098,0.938,0.219,1.487,0.363
				c0.547,0.146,1.078,0.291,1.592,0.436c0.513,0.146,0.939,0.244,1.281,0.291c0.412,0.146,0.959,0.363,1.644,0.654
				c0.683,0.291,1.333,0.463,1.948,0.51c1.164,0.098,2.172,0.619,3.027,1.564c0.854,0.945,1.573,2.023,2.155,3.236
				c0.58,1.213,1.009,2.426,1.283,3.637C457.605,39.055,457.742,40.023,457.742,40.752z"/>
		</g>
		<g>
			<path fill="#FFFFFF" d="M504.023,63.008c0,1.746-0.205,3.408-0.615,4.982c-0.41,1.576-0.855,3.213-1.334,4.91
				c-0.342,1.262-0.891,2.449-1.643,3.564c-0.753,1.115-1.505,2.107-2.258,2.98c-0.479,0.438-0.992,0.887-1.538,1.346
				c-0.549,0.463-1.026,0.885-1.438,1.273c-0.342,0.338-0.891,0.508-1.642,0.508c-0.274,0-1.062-0.207-2.36-0.617
				c-1.301-0.412-2.326-0.836-3.078-1.273c-0.549-0.291-1.026-0.75-1.438-1.381c-0.48-0.873-0.908-1.746-1.283-2.619
				c-0.377-0.873-0.701-1.721-0.975-2.545c-0.479-0.969-0.891-1.975-1.23-3.018c-0.345-1.043-0.72-2.098-1.129-3.166
				c-0.274,0.193-0.582,0.473-0.925,0.838c-0.343,0.361-0.651,0.715-0.923,1.055c-0.139,0.193-0.429,0.424-0.873,0.691
				c-0.445,0.266-0.667,0.594-0.667,0.98c-0.138-0.145-0.292-0.156-0.462-0.035c-0.171,0.121-0.359,0.182-0.564,0.182
				c-1.574,1.357-3.182,2.582-4.822,3.672c-1.643,1.092-3.012,2.219-4.104,3.383c-0.685,0.582-1.643,1.164-2.874,1.746
				c-1.23,0.582-2.224,1.018-2.976,1.309v0.799h-3.593c-0.409,0-0.992-0.133-1.744-0.398c-0.754-0.268-1.334-0.547-1.744-0.838
				c-0.344-0.146-0.667-0.422-0.977-0.836c-0.308-0.41-0.666-0.885-1.076-1.418s-0.703-1.055-0.873-1.564
				c-0.172-0.508-0.256-0.883-0.256-1.127c0-1.066,0.052-2.363,0.153-3.891c0.103-1.527,0.685-3.057,1.744-4.582
				c1.06-1.527,2.188-2.982,3.388-4.365c1.195-1.381,2.172-2.533,2.924-3.455c0.685-0.969,1.762-2.229,3.232-3.781
				c1.471-1.551,2.926-3.055,4.361-4.51c0.958,0.098,1.812,0.158,2.566,0.182c0.752,0.025,1.674,0.377,2.771,1.057
				c0.547,0.291,0.957,0.715,1.231,1.271c0.271,0.559,0.547,1.08,0.82,1.564c-0.344,0.193-0.634,0.461-0.872,0.799
				c-0.241,0.34-0.601,0.656-1.077,0.947v0.654c-0.891,0.971-1.9,2.084-3.027,3.346c-1.129,1.262-2.275,2.559-3.438,3.891
				c-1.164,1.334-2.173,2.656-3.026,3.965c-0.856,1.309-0.941,2.449-0.258,3.418v0.291c0.342-0.193,0.872-0.557,1.592-1.092
				c0.718-0.533,1.451-1.137,2.205-1.818c0.752-0.678,1.521-1.355,2.311-2.035c0.785-0.68,1.452-1.236,2.001-1.674
				c1.709-1.695,2.786-2.801,3.231-3.309c0.444-0.51,0.854-0.92,1.231-1.236c0.375-0.314,0.837-0.533,1.386-0.654
				c0.547-0.121,1.334-0.182,2.359-0.182c0.411,0,0.752,0.133,1.027,0.4c0.271,0.266,0.58,0.473,0.922,0.617
				c1.367,0.193,2.601,0.605,3.695,1.236c1.094,0.631,1.848,1.625,2.258,2.982s0.854,2.533,1.334,3.527
				c0.479,0.994,0.854,1.902,1.129,2.727c0.82-0.775,1.521-1.672,2.104-2.691c0.58-1.018,1.026-2.023,1.335-3.018
				c0.308-0.994,0.599-1.977,0.872-2.947c0.271-0.969,0.444-1.793,0.514-2.473c0.066-0.629,0.051-1.441-0.053-2.438
				c-0.102-0.992-0.152-1.951-0.152-2.873c0-0.338,0.066-0.787,0.205-1.346c0.137-0.557,0.205-1.15,0.205-1.781
				c0,0.146,0.137,0.34,0.41,0.582c0.066,0.146,0.29,0.242,0.667,0.291c0.375,0.049,0.564,0.121,0.564,0.219
				c0.136,0.049,0.221,0.156,0.257,0.326c0.033,0.172,0.188,0.354,0.461,0.547c0.273-0.291,0.581-0.438,0.924-0.438v0.582
				c0.752,0.291,1.471,0.438,2.155,0.438c0.821,1.066,1.487,2.293,2.001,3.674C503.768,60.717,504.023,61.941,504.023,63.008z"/>
		</g>
		<g>
			<path fill="#FFFFFF" d="M533.681,75.955c-0.548,0.146-0.991,0.328-1.334,0.545c-0.343,0.219-0.754,0.377-1.231,0.473
				c0,0.34,0.375,0.582,1.13,0.727c-0.205,0.195-0.396,0.449-0.564,0.766c-0.171,0.314-0.358,0.643-0.563,0.98
				c-0.891-0.146-1.557,0.084-2.002,0.691c-0.444,0.605-0.666,1.199-0.666,1.781c-0.616,0.146-1.25,0.256-1.898,0.328
				c-0.65,0.072-1.352,0.107-2.104,0.107c-0.274,0.098-0.326,0.17-0.154,0.219c0.17,0.049,0.359,0.072,0.564,0.072
				c-0.549,0.049-1.182,0.184-1.898,0.4c-0.719,0.219-1.354,0.352-1.898,0.4v0.219c0,0.096-0.138,0.145-0.41,0.145
				c-0.273,0-0.668-0.072-1.181-0.217c-0.514-0.146-0.993-0.254-1.437-0.328c-0.446-0.072-0.857-0.084-1.232-0.037
				c-0.376,0.049-0.599,0.242-0.666,0.582l-1.13-1.09c-1.505-0.244-2.616-0.557-3.334-0.947c-0.719-0.387-1.729-1.064-3.026-2.037
				c-0.48-0.191-0.807-0.338-0.977-0.436c-0.172-0.098-0.309-0.242-0.411-0.438c-0.103-0.191-0.272-0.582-0.513-1.164
				s-0.564-1.623-0.975-3.127c-0.274-1.455-0.258-2.604,0.051-3.455c0.309-0.848,0.563-1.562,0.77-2.145
				c0.206-0.68,0.65-1.648,1.334-2.91c0.684-1.26,1.402-2.449,2.156-3.562c0.41-0.582,0.888-1.273,1.436-2.074
				c0.549-0.799,1.196-1.635,1.95-2.508c0.343-0.338,0.786-0.752,1.334-1.238c0.548-0.484,0.991-0.969,1.335-1.455
				c0.751-0.484,1.314-0.92,1.693-1.309c0.375-0.389,1.076-0.801,2.104-1.236c0.479-0.146,1.094-0.338,1.848-0.582
				c0.752-0.242,1.061-0.557,0.924-0.945c-0.139,0.049-0.205,0.098-0.205,0.146c0,0.145,0.136,0.217,0.41,0.217
				c0.41,0,0.513-0.037,0.308-0.109c-0.205-0.07-0.103-0.107,0.31-0.107c0.271,0,0.699,0.121,1.281,0.363
				c0.581,0.242,1.112,0.412,1.592,0.51c0.135,0.34,0.205,0.652,0.205,0.945c0,0.291,0.17,0.438,0.514,0.438
				c0.41,0,0.546-0.037,0.41-0.109c-0.139-0.072-0.035-0.109,0.308-0.109c0.272,0,0.496,0.072,0.667,0.219
				c0.171,0.145,0.359,0.291,0.564,0.436c0,0.729,0.084,1.236,0.256,1.527c0.171,0.291,0.394,0.486,0.668,0.582
				c0.271,0.098,0.529,0.207,0.77,0.328c0.239,0.121,0.359,0.424,0.359,0.91c0,0.098-0.069,0.375-0.205,0.836
				c-0.139,0.461-0.292,0.994-0.462,1.6c-0.173,0.607-0.376,1.213-0.616,1.818c-0.239,0.605-0.461,1.152-0.666,1.637
				c-0.411,0.582-1.077,1.346-2.002,2.291c-0.924,0.947-1.831,1.809-2.719,2.582c-0.821,0.584-1.713,1.287-2.67,2.109
				c-0.959,0.824-1.916,1.59-2.873,2.291c-0.959,0.705-1.744,1.322-2.359,1.855c-0.616,0.533-0.924,0.898-0.924,1.09
				c0,0.291,0.359,0.619,1.078,0.982c0.718,0.363,1.385,0.643,2.001,0.836c0.341,0.145,0.837,0.219,1.487,0.219
				c0.649,0,1.145,0,1.487,0c0.548,0,1.078-0.098,1.591-0.291c0.514-0.193,1.182-0.17,2.002,0.072
				c1.367-0.291,2.685-0.582,3.95-0.873c1.265-0.291,2.412-0.533,3.438-0.727C532.997,75.857,533.338,75.955,533.681,75.955z"/>
		</g>
		<g>
			<path fill="#FFFFFF" d="M560.979,75.955c-0.55,0.146-0.992,0.328-1.334,0.545c-0.344,0.219-0.755,0.377-1.231,0.473
				c0,0.34,0.375,0.582,1.129,0.727c-0.205,0.195-0.396,0.449-0.563,0.766c-0.173,0.314-0.359,0.643-0.564,0.98
				c-0.891-0.146-1.557,0.084-2.001,0.691c-0.445,0.605-0.667,1.199-0.667,1.781c-0.616,0.146-1.249,0.256-1.898,0.328
				c-0.65,0.072-1.353,0.107-2.104,0.107c-0.273,0.098-0.325,0.17-0.153,0.219c0.17,0.049,0.358,0.072,0.563,0.072
				c-0.549,0.049-1.181,0.184-1.897,0.4c-0.719,0.219-1.353,0.352-1.897,0.4v0.219c0,0.096-0.139,0.145-0.412,0.145
				c-0.272,0-0.666-0.072-1.18-0.217c-0.514-0.146-0.992-0.254-1.437-0.328c-0.446-0.072-0.856-0.084-1.231-0.037
				c-0.377,0.049-0.601,0.242-0.668,0.582l-1.128-1.09c-1.506-0.244-2.616-0.557-3.336-0.947c-0.719-0.387-1.729-1.064-3.026-2.037
				c-0.479-0.191-0.806-0.338-0.976-0.436c-0.172-0.098-0.308-0.242-0.41-0.438c-0.104-0.191-0.274-0.582-0.514-1.164
				c-0.24-0.582-0.563-1.623-0.976-3.127c-0.273-1.455-0.256-2.604,0.053-3.455c0.308-0.848,0.563-1.562,0.769-2.145
				c0.205-0.68,0.65-1.648,1.334-2.91c0.685-1.26,1.401-2.449,2.156-3.562c0.41-0.582,0.888-1.273,1.437-2.074
				c0.547-0.799,1.195-1.635,1.949-2.508c0.342-0.338,0.786-0.752,1.334-1.238c0.549-0.484,0.991-0.969,1.334-1.455
				c0.752-0.484,1.316-0.92,1.694-1.309c0.375-0.389,1.077-0.801,2.104-1.236c0.478-0.146,1.092-0.338,1.847-0.582
				c0.753-0.242,1.06-0.557,0.924-0.945c-0.138,0.049-0.205,0.098-0.205,0.146c0,0.145,0.136,0.217,0.41,0.217
				c0.411,0,0.514-0.037,0.308-0.109c-0.205-0.072-0.103-0.107,0.309-0.107c0.272,0,0.701,0.121,1.283,0.363
				c0.58,0.242,1.11,0.412,1.59,0.51c0.137,0.34,0.205,0.652,0.205,0.945c0,0.291,0.172,0.438,0.515,0.438
				c0.409,0,0.546-0.037,0.409-0.109s-0.034-0.109,0.309-0.109c0.271,0,0.496,0.072,0.667,0.219
				c0.171,0.145,0.358,0.291,0.563,0.436c0,0.729,0.086,1.236,0.258,1.527c0.17,0.291,0.393,0.486,0.666,0.582
				c0.273,0.098,0.529,0.207,0.771,0.328c0.238,0.121,0.358,0.424,0.358,0.91c0,0.098-0.069,0.375-0.205,0.836
				c-0.14,0.461-0.292,0.994-0.462,1.6c-0.172,0.607-0.377,1.213-0.616,1.818s-0.461,1.152-0.667,1.637
				c-0.41,0.582-1.077,1.346-2.001,2.291c-0.924,0.947-1.831,1.809-2.72,2.582c-0.82,0.584-1.711,1.287-2.668,2.109
				c-0.959,0.824-1.916,1.59-2.873,2.291c-0.96,0.705-1.745,1.322-2.36,1.855c-0.616,0.533-0.924,0.898-0.924,1.09
				c0,0.291,0.358,0.619,1.077,0.982s1.386,0.643,2.001,0.836c0.342,0.145,0.838,0.219,1.487,0.219c0.65,0,1.146,0,1.49,0
				c0.545,0,1.076-0.098,1.59-0.291c0.513-0.193,1.18-0.17,2,0.072c1.369-0.291,2.686-0.582,3.951-0.873s2.411-0.533,3.438-0.727
				C560.294,75.857,560.635,75.955,560.979,75.955z"/>
		</g>
		<g>
			<path fill="#FFFFFF" d="M600.384,56.898c0,0.146-0.087,0.268-0.257,0.363c-0.172,0.098-0.357,0.219-0.564,0.363
				c0,0.193,0.172,0.291,0.515,0.291c-0.138,0.34-0.343,0.533-0.615,0.582c-0.274,0.049-0.14,0.242,0.41,0.582
				c-0.55,0.193-1.146,0.389-1.796,0.582c-0.651,0.193-1.217,0.389-1.693,0.582c0,0.146,0.085,0.254,0.257,0.326
				c0.171,0.074,0.359,0.158,0.564,0.254c-0.345,0.633-1.044,1.068-2.104,1.311c-1.062,0.244-2.104,0.436-3.13,0.582
				c-0.205,0.244-0.563,0.582-1.077,1.02c-0.513,0.436-0.94,0.654-1.281,0.654c-0.275,0-0.344-0.037-0.207-0.109
				c0.138-0.072,0.104-0.156-0.104-0.254c-0.273,0-0.408,0.219-0.408,0.656c-1.027,0.146-2.156,0.375-3.388,0.689
				c-1.231,0.316-2.463,0.619-3.694,0.91c-0.139,0.049-0.172,0.109-0.103,0.182c0.065,0.074,0.103,0.158,0.103,0.254
				c-0.139,0-0.205-0.023-0.205-0.072c0-0.047-0.205-0.072-0.615-0.072c-0.205,0-0.84,0.135-1.898,0.4
				c-1.062,0.266-2.001,0.521-2.82,0.764c-0.07,0.049-0.19,0.158-0.36,0.326c-0.171,0.17-0.325,0.354-0.462,0.545
				c-0.479,0.051-0.992,0.207-1.539,0.475c-0.549,0.266-1.026,0.498-1.438,0.689c-0.205,0.582-0.429,1.285-0.667,2.109
				c-0.239,0.826-0.446,1.613-0.616,2.365s-0.324,1.406-0.461,1.963c-0.139,0.559-0.205,0.91-0.205,1.055s0.032,0.389,0.103,0.727
				c0.067,0.34,0.17,0.717,0.31,1.127c0.137,0.412,0.271,0.789,0.409,1.127c0.136,0.34,0.205,0.559,0.205,0.654
				c0,0.242-0.205,0.498-0.614,0.764c-0.412,0.268-0.617,0.57-0.617,0.908c-0.138,0-0.377,0.023-0.717,0.072
				c-0.345,0.049-0.652,0.074-0.925,0.074c-0.344,0-0.583-0.158-0.719-0.473c-0.138-0.314-0.308-0.547-0.515-0.691
				c-1.572-1.018-2.429-1.988-2.563-2.91c-0.14-0.92-0.308-1.842-0.515-2.764c-0.204-0.533-0.188-1.465,0.052-2.799
				c0.239-1.334,0.323-2.898,0.257-4.693c0-0.096-0.172-0.314-0.513-0.654c-0.343-0.338-0.685-0.689-1.026-1.055
				c-0.343-0.363-0.65-0.691-0.924-0.982s-0.41-0.508-0.41-0.654c0-0.193,0.085-0.594,0.258-1.199
				c0.17-0.605,0.256-1.176,0.256-1.709c0.342-0.242,0.514-0.412,0.514-0.51c0.205-0.047,0.393-0.109,0.564-0.182
				c0.17-0.072,0.393-0.109,0.666-0.109c0.41,0,0.563,0.037,0.463,0.109c-0.104,0.072,0.051,0.109,0.461,0.109
				c0.272,0,0.563-0.121,0.873-0.363c0.308-0.242,0.494-0.484,0.563-0.729c0.272-0.533,0.563-1.32,0.872-2.363
				c0.308-1.043,0.598-2.158,0.872-3.346c0.272-1.189,0.563-2.363,0.873-3.527c0.308-1.164,0.598-2.133,0.872-2.91
				c0.547-1.6,1.18-3.211,1.897-4.838c0.718-1.623,1.386-3.26,2.001-4.908c0.272-0.775,0.598-1.637,0.975-2.584
				c0.377-0.943,0.805-1.877,1.283-2.799c0.342-0.727,0.649-1.588,0.924-2.582c0.271-0.994,0.925-1.732,1.949-2.219
				c0.205-0.146,0.515-0.266,0.924-0.363c0.41-0.098,0.684-0.146,0.82-0.146c0.411,0,0.805,0.193,1.182,0.582
				c0.375,0.389,0.733,0.582,1.078,0.582c0.34,0,0.562-0.012,0.666-0.037c0.104-0.023,0.256-0.035,0.461-0.035l-0.308,0.072v0.363
				c0,0.146,0.103,0.389,0.308,0.729s0.444,0.68,0.72,1.018c0.272,0.34,0.495,0.68,0.667,1.02c0.17,0.34,0.256,0.582,0.256,0.727
				c0,0.193-0.119,0.631-0.357,1.311c-0.24,0.678-0.531,1.26-0.873,1.746c0.205,0.484,0.309,0.896,0.309,1.234
				c-1.026,2.475-2.07,4.91-3.131,7.311c-1.062,2.4-2.104,4.74-3.129,7.02c-0.205,0.971-0.498,2.012-0.873,3.127
				c-0.377,1.115-0.771,2.207-1.18,3.273v0.363c0.342,0.145,0.648,0.207,0.924,0.182c0.271-0.023,0.648-0.037,1.129-0.037
				c0.545-0.145,1.265-0.217,2.154-0.217c0.342,0,0.479,0.061,0.41,0.182s0.104,0.18,0.514,0.18c0.342,0,0.733-0.059,1.181-0.18
				c0.444-0.121,0.905-0.207,1.386-0.256c2.324-0.291,4.807-0.521,7.439-0.691C594.242,57.273,597.168,57.094,600.384,56.898z"/>
		</g>
		<g>
			<path fill="#FFFFFF" d="M618.855,53.334c0,0.244-0.035,0.426-0.103,0.545c-0.067,0.123-0.172,0.23-0.308,0.328
				c0.136,0.729,0.153,1.637,0.051,2.729c-0.102,1.09-0.395,1.977-0.872,2.654c-0.205,0.145-0.53,0.266-0.976,0.363
				s-0.838,0.146-1.181,0.146c-0.272,0-0.735-0.109-1.385-0.328c-0.651-0.219-1.216-0.496-1.694-0.836
				c-0.479,0.146-0.752,0.363-0.82,0.654c-0.479,2.715-0.666,5.479-0.563,8.291s-0.188,5.602-0.872,8.365
				c-0.139,0.68-0.325,1.551-0.564,2.617c-0.239,1.068-0.633,2.123-1.18,3.164c-0.549,1.043-1.318,1.928-2.31,2.656
				c-0.992,0.729-2.206,1.09-3.644,1.09c-0.41,0-0.634-0.037-0.668-0.107c-0.035-0.074-0.152-0.135-0.357-0.184
				c-0.139-0.098-0.206-0.107-0.206-0.037c0,0.074-0.205,0.111-0.615,0.111c-0.479,0-0.959-0.123-1.437-0.365
				c-0.479-0.242-0.959-0.473-1.438-0.689c-0.479-0.219-0.872-0.438-1.181-0.656c-0.307-0.217-0.53-0.326-0.666-0.326
				c-0.821-0.34-1.693-0.91-2.617-1.709c-0.924-0.801-1.78-1.686-2.564-2.656c-0.787-0.969-1.438-1.963-1.949-2.98
				c-0.515-1.02-0.771-1.893-0.771-2.619c0-0.436,0.205-1.127,0.615-2.072c0.409-0.945,0.924-1.732,1.538-2.363
				c0.343,0,0.615-0.047,0.822-0.145c0.066,0.193,0.033,0.424-0.104,0.689c-0.139,0.268-0.241,0.521-0.309,0.764
				c0.137,0.146,0.271,0.23,0.41,0.254c0.137,0.025,0.31,0.109,0.514,0.254c0.205,0,0.271,0.109,0.205,0.328
				c-0.068,0.219-0.103,0.498-0.103,0.836c0.272,0.193,0.461,0.303,0.563,0.328c0.103,0.023-0.088,0.207-0.563,0.545
				c0.41,0.533,0.548,0.969,0.41,1.309c0.205,0.291,0.495,0.596,0.872,0.908c0.375,0.316,0.427,0.668,0.154,1.057l0.41,0.289
				c0.342-0.289,0.717-0.436,1.129-0.436c0.547,0.68,0.957,1.43,1.23,2.254c0.271,0.826,0.924,1.48,1.949,1.965
				c0.615-0.389,1.129-0.873,1.54-1.455c0.409-0.582,0.752-1.139,1.026-1.674c0.614-1.018,1.061-2.217,1.334-3.6
				c0.271-1.383,0.478-2.775,0.614-4.184c0.138-1.404,0.171-2.738,0.104-4c-0.069-1.26-0.104-2.303-0.104-3.127
				c0-0.531,0.119-1.127,0.359-1.781c0.239-0.654,0.358-1.273,0.358-1.854c0-0.193-0.051-0.389-0.153-0.582
				s-0.154-0.389-0.154-0.582c0-0.484,0.067-0.971,0.206-1.455c0.137-0.484,0.271-1.115,0.41-1.891c0-0.193,0.018-0.691,0.052-1.492
				c0.033-0.799,0.17-1.637,0.41-2.51c0.239-0.873,0.547-1.646,0.924-2.326c0.375-0.68,0.872-1.02,1.488-1.02
				c0.409,0,0.649,0.025,0.718,0.072c0.068,0.049,0.206,0.123,0.411,0.219c1.642-0.146,3.438,0.207,5.388,1.055
				s3.438,1.637,4.465,2.363c0.066,0.146,0.103,0.279,0.103,0.4s0,0.254,0,0.4c0.409,0.193,0.784,0.52,1.129,0.98
				C618.686,52.74,618.855,53.092,618.855,53.334z M594.329,75.955h-0.41v-1.092h0.41V75.955z"/>
		</g>
	</g>
</g>
</svg>
